<?xml version="1.0" encoding="UTF-8" standalone="no"?>
<svg
   xmlns:dc="http://purl.org/dc/elements/1.1/"
   xmlns:cc="http://creativecommons.org/ns#"
   xmlns:rdf="http://www.w3.org/1999/02/22-rdf-syntax-ns#"
   xmlns:svg="http://www.w3.org/2000/svg"
   xmlns="http://www.w3.org/2000/svg"
   xmlns:sodipodi="http://sodipodi.sourceforge.net/DTD/sodipodi-0.dtd"
   xmlns:inkscape="http://www.inkscape.org/namespaces/inkscape"
   sodipodi:docname="icon.svg"
   inkscape:version="1.0 (4035a4fb49, 2020-05-01)"
   id="svg8"
   version="1.1"
   viewBox="0 0 14 14"
   height="14mm"
   width="14mm">
  <defs
     id="defs2" />
  <sodipodi:namedview
     inkscape:window-maximized="1"
     inkscape:window-y="-8"
     inkscape:window-x="-8"
     inkscape:window-height="1017"
     inkscape:window-width="1920"
     inkscape:snap-global="true"
     showgrid="false"
     inkscape:document-rotation="0"
     inkscape:current-layer="layer3"
     inkscape:document-units="mm"
     inkscape:cy="21.856168"
     inkscape:cx="3.2186288"
     inkscape:zoom="11.2"
     inkscape:pageshadow="2"
     inkscape:pageopacity="0.0"
     borderopacity="1.0"
     bordercolor="#666666"
     pagecolor="#ffffff"
     id="base" />
  <metadata
     id="metadata5">
    <rdf:RDF>
      <cc:Work
         rdf:about="">
        <dc:format>image/svg+xml</dc:format>
        <dc:type
           rdf:resource="http://purl.org/dc/dcmitype/StillImage" />
        <dc:title></dc:title>
      </cc:Work>
    </rdf:RDF>
  </metadata>
  <g
     sodipodi:insensitive="true"
     id="layer1"
     inkscape:groupmode="layer"
     inkscape:label="Layer 1">
    <path
       style="stroke-width:0.264583"
       d="m 11.233335,3.8250002 c 0,0 -1.21338,-0.949855 -2.64584,-1.0583341 l -0.12911,0.258498 c 1.29487,0.317236 1.88912,0.770731 2.51036,1.329002 -1.07077,-0.546629 -2.12725,-1.058333 -3.96875,-1.058333 -1.8415,0 -2.8979801,0.511704 -3.96875,1.058333 0.62124,-0.5582709 1.32821,-1.062566 2.51037,-1.329002 L 5.4124949,2.7666661 c -1.50283,0.141552 -2.6458299,1.0583341 -2.6458299,1.0583341 0,0 -1.35493,1.964795 -1.5875,5.8208327 1.36525,1.5750661 3.4395799,1.5875011 3.4395799,1.5875011 l 0.43392,-0.57785 C 4.3160649,10.399367 3.485275,9.9424319 2.766665,9.1166662 c 0.8567199,0.6482287 2.1497399,1.3229178 4.2333299,1.3229178 2.0836002,0 3.3766101,-0.6746892 4.2333401,-1.3229178 -0.71835,0.8257657 -1.54914,1.2827008 -2.286,1.5388178 l 0.4339101,0.57785 c 0,0 2.0743399,-0.01243 3.4395899,-1.5875011 -0.23257,-3.8560377 -1.5875,-5.8208327 -1.5875,-5.8208327 z M 5.2802049,8.5875003 c -0.5117,0 -0.9260399,-0.473605 -0.9260399,-1.0583341 0,-0.5847291 0.41434,-1.058333 0.92604,-1.058333 0.5117,0 0.92604,0.4736039 0.92604,1.058333 0,0.584729 -0.41434,1.0583341 -0.9260401,1.0583341 z m 3.4395801,0 c -0.5117,0 -0.92604,-0.473605 -0.92604,-1.0583341 0,-0.5847291 0.41434,-1.058333 0.92604,-1.058333 0.5117101,0 0.92605,0.4736039 0.92605,1.058333 0,0.584729 -0.4143399,1.0583341 -0.92605,1.0583341 z"
       fill="#8c9eff"
       id="surface1" />
  </g>
  <g
     sodipodi:insensitive="true"
     inkscape:label="Layer 2"
     id="layer2"
     inkscape:groupmode="layer">
    <g
       style="fill:#000000"
       transform="matrix(0.01278042,0,0,0.01278042,7.3431519,5.9877235)"
       id="g84">
      <path
         style="fill:#000000"
         d="m 0,513.103 v 0 0 C 4.414,492.8 14.124,474.262 29.131,459.255 L 206.565,281.821 231.282,306.538 53.848,483.972 C 38.841,498.979 20.303,508.69 0,513.103"
         id="path20" />
      <path
         style="fill:#000000"
         d="M 309.848,385.986 127.117,203.255 c -7.062,-7.062 -4.414,-18.538 5.297,-22.069 l 22.069,-7.062 c 20.303,-7.062 42.372,-1.766 57.379,13.241 l 112.993,113.876 c 15.007,15.007 20.303,37.076 13.241,57.379 l -7.062,22.069 c -2.648,8.828 -15.006,12.359 -21.186,5.297"
         id="path22" />
      <polygon
         style="fill:#000000"
         points="449.324,151.172 324.855,301.241 211.862,188.248 361.931,63.779 "
         id="polygon24" />
      <path
         style="fill:#000000"
         d="M 473.159,174.124 338.979,39.945 c -4.414,-4.414 -4.414,-11.476 0,-15.89 L 358.4,4.634 c 6.179,-6.179 15.007,-6.179 21.186,0 l 128.883,128.883 c 6.179,6.179 6.179,15.007 0,21.186 l -18.538,18.538 c -6.179,5.297 -13.241,5.297 -16.772,0.883"
         id="path26" />
      <g
         style="fill:#000000"
         id="g28">
</g>
      <g
         style="fill:#000000"
         id="g30">
</g>
      <g
         style="fill:#000000"
         id="g32">
</g>
      <g
         style="fill:#000000"
         id="g34">
</g>
      <g
         style="fill:#000000"
         id="g36">
</g>
      <g
         style="fill:#000000"
         id="g38">
</g>
      <g
         style="fill:#000000"
         id="g40">
</g>
      <g
         style="fill:#000000"
         id="g42">
</g>
      <g
         style="fill:#000000"
         id="g44">
</g>
      <g
         style="fill:#000000"
         id="g46">
</g>
      <g
         style="fill:#000000"
         id="g48">
</g>
      <g
         style="fill:#000000"
         id="g50">
</g>
      <g
         style="fill:#000000"
         id="g52">
</g>
      <g
         style="fill:#000000"
         id="g54">
</g>
      <g
         style="fill:#000000"
         id="g56">
</g>
    </g>
  </g>
  <g
     sodipodi:insensitive="true"
     inkscape:label="Layer 3"
     id="layer3"
     inkscape:groupmode="layer">
    <g
       id="g186"
       transform="matrix(0.01278042,0,0,0.01278042,7.3177868,5.6919029)">
      <path
         id="path148"
         d="m 0,513.103 v 0 0 C 4.414,492.8 14.124,474.262 29.131,459.255 L 206.565,281.821 231.282,306.538 53.848,483.972 C 38.841,498.979 20.303,508.69 0,513.103"
         style="fill:#d8d8d8" />
      <path
         id="path150"
         d="M 309.848,385.986 127.117,203.255 c -7.062,-7.062 -4.414,-18.538 5.297,-22.069 l 22.069,-7.062 c 20.303,-7.062 42.372,-1.766 57.379,13.241 l 112.993,113.876 c 15.007,15.007 20.303,37.076 13.241,57.379 l -7.062,22.069 c -2.648,8.828 -15.006,12.359 -21.186,5.297"
         style="fill:#af1b1b" />
      <polygon
         id="polygon152"
         points="324.855,301.241 211.862,188.248 361.931,63.779 449.324,151.172 "
         style="fill:#dd342e" />
      <path
         id="path154"
         d="M 473.159,174.124 338.979,39.945 c -4.414,-4.414 -4.414,-11.476 0,-15.89 L 358.4,4.634 c 6.179,-6.179 15.007,-6.179 21.186,0 l 128.883,128.883 c 6.179,6.179 6.179,15.007 0,21.186 l -18.538,18.538 c -6.179,5.297 -13.241,5.297 -16.772,0.883"
         style="fill:#af1b1b" />
      <g
         id="g156">
</g>
      <g
         id="g158">
</g>
      <g
         id="g160">
</g>
      <g
         id="g162">
</g>
      <g
         id="g164">
</g>
      <g
         id="g166">
</g>
      <g
         id="g168">
</g>
      <g
         id="g170">
</g>
      <g
         id="g172">
</g>
      <g
         id="g174">
</g>
      <g
         id="g176">
</g>
      <g
         id="g178">
</g>
      <g
         id="g180">
</g>
      <g
         id="g182">
</g>
      <g
         id="g184">
</g>
    </g>
  </g>
</svg>
